# xmcd
#
# Track frame offsets: 
#        150
#        16065
#        39142
#        57765
#        68495
#        80830
#        93302
#        103960
#        113817
#        124352
#        134990
#        146552
#        156875
#        167800
#        179737
#        190245
#        202930
#        211107
#        224710
#        236885
#
# Disc length: 3328 seconds
#
# Revision: 0
# Processed by: cddbd v1.4PL0 Copyright (c) Steve Scherf et al.
# Submitted via: ExactAudioCopy v0.90a11
#
DISCID=2e0cfe14
DTITLE=Red Sovine - Phantom 309 (20 Great Songs)
DYEAR=1900
DGENRE=
TTITLE0=Phanton 309
TTITLE1=Teddy Bear
TTITLE2=Giddyup Gp
TTITLE3=East Of West Berlin
TTITLE4=A Wound Time Can't Erase
TTITLE5=Thanks For Nothing
TTITLE6=Willow Tree
TTITLE7=The Tears Broke Out On Me
TTITLE8=Losing Your Love
TTITLE9=She Can't Read My Writing
TTITLE10=Tender Years
TTITLE11=If A Woman Answers
TTITLE12=Hello Fool
TTITLE13=There's Always One
TTITLE14=The Roses Of Love
TTITLE15=If Jesus Came To Your House
TTITLE16=Outlaw
TTITLE17=Little Rosa
TTITLE18=I'm So Glad
TTITLE19=Girl On The Billboard
EXTD=
EXTT0=
EXTT1=
EXTT2=
EXTT3=
EXTT4=
EXTT5=
EXTT6=
EXTT7=
EXTT8=
EXTT9=
EXTT10=
EXTT11=
EXTT12=
EXTT13=
EXTT14=
EXTT15=
EXTT16=
EXTT17=
EXTT18=
EXTT19=
PLAYORDER=
